<?xml version="1.0" encoding="UTF-8" standalone="no"?>
<!DOCTYPE svg PUBLIC "-//W3C//DTD SVG 1.1//EN" "http://www.w3.org/Graphics/SVG/1.1/DTD/svg11.dtd">
<svg width="100%" height="100%" viewBox="0 0 1920 1200" version="1.1" xmlns="http://www.w3.org/2000/svg" xmlns:xlink="http://www.w3.org/1999/xlink" xml:space="preserve" xmlns:serif="http://www.serif.com/" style="fill-rule:evenodd;clip-rule:evenodd;stroke-linejoin:round;stroke-miterlimit:2;">
    <g transform="matrix(1.19739,0,0,1.19739,-424.125,-133.227)">
        <circle cx="1065.21" cy="563.641" r="406.094" style="fill:rgb(167,29,33);"/>
    </g>
    <g id="Text-bright-2-big-bold" serif:id="Text bright 2 big bold" transform="matrix(1.4042,0,0,1.43161,-311.305,-252.421)">
        <g transform="matrix(1,0,0,1,-987.534,535.02)">
            <text x="1662.88px" y="293.085px" style="font-family:'BrushScriptStd', 'Brush Script Std', cursive;font-weight:500;font-style:italic;font-size:400px;fill:rgb(214,208,228);">P</text>
        </g>
        <g transform="matrix(1,0,0,1,924.908,518.622)">
            <text x="0px" y="0px" style="font-family:'MyriadArabic-BoldIt', 'Myriad Arabic';font-weight:700;font-style:italic;font-size:409.833px;fill:rgb(214,208,228);">a<tspan x="174.472px 264.342px 398.416px " y="0px 0px 0px ">lsa</tspan></text>
        </g>
        <g transform="matrix(1,0,0,1,842.698,848.292)">
            <text x="0px" y="0px" style="font-family:'MyriadArabic-BoldIt', 'Myriad Arabic';font-weight:700;font-style:italic;font-size:209.098px;fill:rgb(214,208,228);">a<tspan x="89.016px 178.928px 260.029px 321.563px 412.372px 502.135px 563.669px " y="0px 0px 0px 0px 0px 0px 0px ">derborn</tspan></text>
        </g>
        <g transform="matrix(1,0,0,1,988.686,732.946)">
            <text x="0px" y="0px" style="font-family:'MyriadArabic-BoldIt', 'Myriad Arabic';font-weight:700;font-style:italic;font-size:292.738px;fill:rgb(214,208,228);">a<tspan x="118.768px 208.68px 266.809px 386.623px " y="0px 0px 0px 0px ">sión</tspan></text>
        </g>
        <g transform="matrix(1,0,0,1,-499.856,90.4331)">
            <text x="1139.38px" y="431.658px" style="font-family:'BrushScriptStd', 'Brush Script Std', cursive;font-weight:500;font-style:italic;font-size:400px;fill:rgb(214,208,228);">S</text>
        </g>
    </g>
</svg>
