<?xml version="1.0" encoding="UTF-8" standalone="no"?>
<!DOCTYPE svg PUBLIC "-//W3C//DTD SVG 1.1//EN" "http://www.w3.org/Graphics/SVG/1.1/DTD/svg11.dtd">
<svg width="100%" height="100%" viewBox="0 0 1920 1200" version="1.1" xmlns="http://www.w3.org/2000/svg" xmlns:xlink="http://www.w3.org/1999/xlink" xml:space="preserve" xmlns:serif="http://www.serif.com/" style="fill-rule:evenodd;clip-rule:evenodd;stroke-linejoin:round;stroke-miterlimit:2;">
    <g transform="matrix(1,0,0,1,-103.214,-3.49258)">
        <circle cx="1065.21" cy="563.641" r="406.094" style="fill:rgb(167,29,33);"/>
    </g>
    <g id="Text-bright-2-small" serif:id="Text bright 2 small" transform="matrix(1,0,0,1,149.37,6.69845)">
        <g transform="matrix(1,0,0,1,-987.534,535.02)">
            <text x="1662.88px" y="293.085px" style="font-family:'BrushScriptStd', 'Brush Script Std', cursive;font-weight:500;font-style:italic;font-size:400px;fill:rgb(214,208,228);">P</text>
        </g>
        <g transform="matrix(1,0,0,1,861.806,518.622)">
            <text x="0px" y="0px" style="font-family:'MyriadArabic-It', 'Myriad Arabic';font-style:italic;font-size:395px;fill:rgb(214,208,228);">a<tspan x="139.379px 196.089px 293.146px " y="0px 0px 0px ">lsa</tspan></text>
        </g>
        <g transform="matrix(1,0,0,1,771.07,844.946)">
            <text x="0px" y="0px" style="font-family:'MyriadArabic-It', 'Myriad Arabic';font-style:italic;font-size:200px;fill:rgb(214,208,228);">aderborn</text>
        </g>
        <g transform="matrix(1,0,0,1,990.822,732.946)">
            <text x="0px" y="0px" style="font-family:'MyriadArabic-It', 'Myriad Arabic';font-style:italic;font-size:200px;fill:rgb(214,208,228);">asión</text>
        </g>
        <g transform="matrix(1,0,0,1,-543.344,90.4331)">
            <text x="1139.38px" y="431.658px" style="font-family:'BrushScriptStd', 'Brush Script Std', cursive;font-weight:500;font-style:italic;font-size:400px;fill:rgb(214,208,228);">S</text>
        </g>
    </g>
    <g id="Paar" transform="matrix(-1,0,0,1,1474.78,-55.4107)">
        <g transform="matrix(0.189027,0,0,0.189027,374.902,454.857)">
            <path d="M3413.7,3297.45C3499.55,2919.94 2363.32,3032.74 2247.75,3393.75C2250.9,3411.75 2235.6,3495.45 2227.95,3503.55C2224.8,3506.25 2200.05,3510.75 2172.15,3513C2125.8,3517.05 2114.32,3521.51 2115.67,3529.61C2120.62,3569.21 2129.4,3598.95 2126.7,3620.55L2123.55,3645.75L2090.7,3645.75C2048.85,3645.75 2037.6,3638.1 2026.8,3601.65C2014.39,3535.68 2015.51,3529.93 1992.6,3529.65C1985.4,3528.75 1973.7,3532.8 1963.35,3539.55C1953.9,3545.85 1935.9,3553.95 1923.75,3557.55C1894.05,3566.1 1810.8,3573.75 1743.75,3573.75C1697.85,3573.75 1687.5,3572.4 1675.35,3564.75C1658.7,3554.85 1656.9,3545.85 1667.25,3521.55C1685.25,3477.9 1724.4,3447.75 1777.05,3436.05C1815.3,3427.95 1837.35,3413.55 1883.25,3367.2C1909.35,3340.65 1909.8,3339.75 1897.2,3339.75C1886.85,3339.75 1885.05,3338.4 1887.75,3332.1C1893.15,3318.6 1895.85,3291.6 1892.7,3279.9C1891.35,3273.6 1880.55,3258.75 1869.3,3247.05C1845.45,3221.85 1813.05,3180 1797.3,3152.55C1791,3142.2 1755,3041.85 1717.2,2929.8C1678.95,2817.3 1626.3,2662.95 1600.2,2586C1547.55,2432.55 1547.55,2434.35 1567.35,2385.75C1580.4,2354.25 1683,2173.8 1724.85,2109C1793.25,2003.7 1832.85,1953.75 1915.65,1866.9C1943.55,1838.1 1948.5,1830.9 1944,1825.5C1939.05,1819.2 1762.65,920.55 1772.1,900.75C1782,879.15 2706.75,804.9 2715.3,848.55C2723.85,892.2 2734.65,950.7 2738.25,978.6C2742.75,1010.1 2749.5,1037.55 2756.7,1051.95C2763.9,1067.25 2767.5,1083 2767.5,1098.3C2767.5,1112.7 2771.1,1128.45 2776.5,1139.25C2781.45,1149.15 2785.5,1160.4 2785.5,1164.9C2785.5,1169.85 2791.35,1180.2 2799,1188.75C2808.9,1200.9 2812.05,1209 2812.5,1223.85C2812.5,1240.05 2815.65,1247.25 2829.6,1263C2845.35,1281 2853.9,1300.8 2866.05,1344.45C2868.75,1354.8 2876.85,1370.55 2884.05,1379.55C2891.7,1389 2900.7,1405.65 2904.75,1417.35C2909.25,1429.05 2916.45,1448.4 2920.95,1460.55C2925.9,1473.15 2928.15,1484.4 2925.9,1486.65C2923.65,1488.9 2914.2,1483.5 2904.3,1474.5C2873.25,1446.15 2870.1,1446.15 2882.7,1474.5C2894.85,1502.4 2895.75,1509.15 2888.55,1520.85C2884.95,1526.7 2888.55,1537.95 2907,1575.3C2919.6,1601.4 2934,1627.5 2938.5,1633.35C2943.45,1639.2 2948.4,1651.35 2950.2,1660.8C2953.8,1679.7 2967.3,1704.45 2976.75,1708.05C2980.35,1709.4 2983.5,1715.7 2983.5,1722.45C2983.5,1728.75 2998.35,1760.7 3016.35,1793.1C3040.65,1837.65 3055.95,1859.25 3076.65,1879.95C3096.45,1899.75 3105.9,1912.8 3109.5,1926.75C3112.65,1938 3120.75,1951.5 3129.75,1960.05C3137.85,1967.7 3146.85,1981.2 3149.55,1989.75C3163.5,2038.35 3176.1,2063.55 3198.6,2088.3C3212.55,2104.5 3223.35,2121.15 3225.15,2130.15C3228.3,2148.15 3247.65,2186.85 3275.1,2232.75C3286.35,2251.2 3302.55,2282.7 3310.65,2302.5C3319.2,2322.3 3329.55,2341.65 3334.05,2345.25C3345.3,2354.25 3362.4,2388.45 3365.55,2408.25C3368.25,2418.44 3369.15,2409.47 3393,2427.6C3399.01,2424.11 3509.04,2498 3564,2574.75C3636,2646.3 3657.6,2671.05 3682.35,2709.75C3699.45,2735.85 3740.4,2799.75 3773.7,2851.5C3807.45,2903.7 3846.15,2958.15 3860.1,2973.45C3894.75,3010.35 3915,3036 3929.4,3060.3C3937.5,3074.25 3948.3,3084.6 3963.15,3092.7C3989.7,3106.65 4021.65,3148.05 4054.05,3208.8C4070.7,3240.75 4081.95,3255.6 4095.45,3265.5C4105.35,3273.15 4117.95,3284.4 4122.45,3291.15C4132.35,3304.65 4207.95,3345.15 4239,3353.25C4250.25,3355.95 4267.35,3361.8 4277.25,3366.3C4287.15,3370.8 4308.3,3379.35 4324.5,3384.75C4361.4,3397.8 4390.2,3419.85 4440.6,3472.05C4489.65,3523.35 4513.95,3559.35 4517.1,3585C4519.8,3610.2 4513.05,3621 4485.15,3635.4C4463.55,3647.1 4458.15,3647.55 4410,3647.1C4350.15,3646.65 4294.35,3636.75 4272.3,3622.8C4263.75,3617.4 4248.9,3603 4239.45,3589.95C4219.2,3562.95 4140.45,3510.75 4119.3,3510.75C4097.7,3510.3 4055.85,3498.6 4039.2,3488.7C4016.7,3474.3 3988.8,3442.35 3982.5,3422.55C3973.5,3394.65 3960.9,3372.15 3943.8,3353.25L3928.05,3335.7L3888.9,3356.4C3838.05,3382.95 3748.95,3435.6 3748.5,3439.2C3748.5,3441 3806.1,3490.95 3843.9,3522C3849.3,3526.5 3851.1,3533.25 3850.2,3544.5C3849.3,3553.5 3847.95,3561.6 3846.6,3562.5C3845.7,3563.4 3820.5,3567.45 3791.25,3571.05C3761.55,3575.1 3730.05,3580.05 3721.5,3582.75C3712.95,3585.45 3681.45,3589.05 3651.75,3590.4L3597.3,3593.1L3584.7,3577.8C3577.95,3569.7 3565.8,3551.7 3558.15,3537.75C3539.7,3505.8 3537.9,3514.35 3550.05,3577.35C3561.75,3638.1 3561.75,3636.75 3548.25,3636.75C3541.95,3636.75 3537,3636.3 3537,3635.85C3533.4,3609.75 3522.15,3559.35 3514.95,3535.05C3504.6,3499.95 3491.1,3477.45 3461.4,3445.05C3435.3,3417.15 3427.65,3395.1 3431.7,3359.1C3434.4,3331.2 3434.4,3330.3 3413.7,3297.45ZM2295.45,3088.65C2347.32,3063.06 2347.36,3073.98 2313.45,2937C2303.1,2871.3 2290.5,2802.45 2285.55,2784C2274.75,2742.6 2243.7,2661.15 2219.85,2613C2201.4,2574.75 2138.83,2450.57 2132.98,2444.26C2128.93,2439.76 2069.55,2498.7 2042.55,2534.25C2012.85,2573.85 2002.5,2597.7 2002.5,2627.4C2002.5,2667 2013.3,2709.75 2034.45,2753.4C2059.2,2805.6 2058.3,2803.8 2078.55,2882.1C2088.45,2919.9 2099.25,2959.5 2102.85,2970.75C2106.45,2982 2115.9,3011.25 2123.55,3036.45L2139.33,3090.12L2184.75,3084.15C2219.4,3085.95 2233.35,3088.65 2238.75,3094.05C2250,3104.85 2272.95,3102.6 2295.45,3088.65Z" style="fill:rgb(20,20,22);fill-rule:nonzero;"/>
        </g>
        <g id="Mann" transform="matrix(0.189027,0,0,0.189027,374.902,454.857)">
            <path d="M2052.45,320.25C2085.06,356.338 1876.34,590.534 1863.45,634.35C1855.35,654.15 1832.4,673.05 1802.25,684.3C1771.65,696 1762.65,696 1739.25,685.2C1712.25,673.05 1706.4,663.6 1704.6,633L1703.25,606L1686.15,604.65C1676.7,603.75 1667.7,600.15 1666.8,597C1669.27,591.521 1664.34,585.678 1654.6,580.684C1650.4,578.528 1647.37,573.501 1643.85,570C1625.35,551.597 1621.8,549.75 1607.85,552.45C1582.2,557.4 1579.5,551.1 1579.5,490.35C1579.5,438.15 1579.05,435.9 1568.25,427.35C1552.05,414.75 1545.3,399.45 1539,362.1C1534.5,333.75 1532.25,328.8 1521.9,323.85C1504.8,315.75 1464.3,259.95 1458.45,237C1449.45,200.55 1460.7,186.6 1539,134.4C1560.15,120.45 1591.65,95.7 1608.75,79.5C1626.3,62.85 1651.05,44.4 1664.55,38.1C1718.55,12.45 1819.35,13.8 1873.8,40.8C1907.55,57.9 1960.2,101.1 1984.95,132.6C1990.25,139.561 1994.96,147.521 1998.34,157.677C2003.19,170.466 2001.73,184.656 2000.7,198.75C1998.45,238.8 1998.9,242.85 2009.25,261.3C2015.55,272.1 2034.9,298.65 2052.45,320.25Z" style="fill:rgb(35,26,20);fill-rule:nonzero;"/>
        </g>
        <g id="Frau" transform="matrix(0.189027,0,0,0.189027,374.902,454.857)">
            <path d="M937.739,1109.4C933.224,1114.25 933.759,1134.01 950.893,1135.15C1242.68,1154.5 1555.84,1101.6 1377.9,1368.75C1374.66,1373.62 1363.5,1393.5 1363.5,1411.5C1363.5,1419.15 1360.35,1436.25 1356.3,1449.3C1350.45,1469.1 1346.85,1474.05 1333.8,1479.45C1322.55,1483.95 1315.8,1484.85 1309.5,1481.25C1295.55,1474.05 1289.25,1475.85 1288.35,1488.45C1288.35,1495.2 1286.1,1501.5 1283.85,1503.3C1281.6,1504.65 1278,1509.6 1276.65,1514.55C1273.95,1520.85 1274.85,1522.2 1281.15,1519.95C1286.55,1518.15 1285.65,1520.4 1278.45,1526.7C1270.35,1533.45 1262.25,1535.7 1247.4,1534.8C1230.3,1533.45 1226.7,1534.8 1216.35,1547.85C1202.4,1566.3 1187.1,1573.95 1158.75,1578C1146.15,1579.8 1129.95,1583.4 1122.3,1585.65C1087.65,1597.8 976.95,1539.3 955.8,1497.9C950.85,1488.45 949.05,1476.75 950.4,1459.2C952.65,1435.8 951.3,1431.75 928.8,1391.25C897.75,1335.9 886.05,1292.25 885.15,1232.4C884.7,1192.8 886.05,1184.25 894.6,1168.5C917.1,1128 937.739,1109.4 937.739,1109.4ZM1269,1512.75C1274.85,1509.15 1274.85,1508.25 1268.55,1508.25C1264.5,1508.25 1258.2,1503.75 1254.6,1498.8C1251,1493.4 1245.6,1489.8 1242.45,1490.7C1238.4,1492.05 1239.75,1496.1 1246.5,1505.1C1257.3,1518.6 1259.1,1519.05 1269,1512.75ZM1000.46,1110.13C990.107,1101.13 990.423,1093.53 991.323,1084.97C993.123,1070.58 975.15,1073.55 972.9,1087.95C958.666,1109.55 995.707,1142.85 1020.38,1128.96C1022.73,1127.64 1008.11,1116.43 1000.46,1110.13ZM1061.72,1085.03C1061.72,1080.08 1051.6,1060.98 1045.3,1054.23C1041.17,1049.42 1028.98,1039.82 1028.98,1039.82C1028.98,1039.82 1015.55,1064.17 1015.27,1070.57C1022.91,1077.27 1043.9,1095.27 1046.45,1097.72C1048.25,1097.72 1061.72,1089.53 1061.72,1085.03Z" style="fill:rgb(35,26,20);fill-rule:nonzero;"/>
        </g>
        <g transform="matrix(0.189027,0,0,0.189027,374.902,454.857)">
            <path d="M2087.32,553.924C2350.33,913.836 2147.75,994.716 1965.81,646.006C1968.96,640.606 2027.02,562.924 2087.32,553.924Z" style="fill:rgb(115,7,8);fill-rule:nonzero;"/>
        </g>
        <g transform="matrix(0.189027,0,0,0.189027,374.902,454.857)">
            <path d="M2890.81,2859.88C2912.41,2911.63 2683.2,2990.11 2662.05,2854.21C2640.45,2718.31 2699.5,2482.72 2843.95,2667.22C2897.95,2736.52 2885.41,2846.38 2890.81,2859.88Z" style="fill:rgb(79,45,24);fill-rule:nonzero;"/>
        </g>
        <g transform="matrix(0.189027,0,0,0.189027,374.902,454.857)">
            <path d="M1181.25,926.85C1222.44,924.493 1155.53,1026.77 1114.78,956.614C1121.08,950.314 1129.33,948.993 1132.93,950.343C1134.89,951.215 1141.01,955.408 1141.01,955.408C1140.43,956.308 1137.35,948.977 1141.61,941.17C1145.13,937.488 1147.37,938.341 1156.05,938.1C1170.45,940.35 1173.15,939 1181.25,926.85Z" style="fill:rgb(115,7,8);fill-rule:nonzero;"/>
        </g>
        <g id="Mann-Bart---Frau-Ohren" serif:id="Mann Bart + Frau Ohren" transform="matrix(0.189027,0,0,0.189027,374.902,454.857)">
            <path d="M2628.35,880.206C2576.77,976.046 2531.12,1075.14 2449.43,1166.04C2162.3,1485.54 1795.05,1725.22 1981.44,1822.81C1954.89,1791.31 1837.8,1736.85 1825.65,1736.4C1822.5,1735.95 1810.35,1740.9 1798.2,1746.3C1751.85,1767.9 1694.7,1763.4 1633.5,1732.8C1591.68,1708.05 1590.06,1699.05 1580.85,1659C1583.55,1620.3 1578.15,1605 1550.25,1575.3C1539,1563.15 1531.99,1545.33 1531.99,1541.28C1531.99,1537.23 1521,1529.85 1509.75,1519.05C1498.5,1508.25 1484.1,1492.05 1477.8,1482.6C1471.5,1473.6 1450.8,1447.95 1431.9,1425.9C1413,1403.85 1392.75,1379.55 1387.35,1371.9C1374.3,1353.9 1373.85,1338.15 1386.9,1333.2C1395.45,1330.05 1394.1,1328.25 1372.05,1316.55C1352.25,1305.75 1345.5,1299 1335.6,1279.65L1323.45,1255.8L1314,1273.8C1309.05,1284.15 1303.65,1292.25 1301.85,1292.25C1300.5,1292.25 1300.5,1277.85 1302.3,1259.85C1305.45,1224.75 1321.2,1190.1 1340.1,1174.8L1351.35,1166.25L1338.75,1166.25C1330.2,1166.25 1321.65,1171.65 1309.95,1184.25C1300.95,1194.15 1291.95,1200.9 1290.15,1199.55C1288.35,1197.75 1286.55,1189.2 1286.55,1180.2C1285.65,1164.9 1285.65,1164.9 1283.85,1177.5C1282.5,1185.15 1276.65,1196.4 1270.35,1203.15C1260,1213.95 1259.1,1218 1261.35,1236.9C1263.15,1248.6 1265.4,1263 1267.2,1267.95C1269.45,1276.95 1267.2,1278.3 1237.95,1285.05C1152.9,1304.4 1118.25,1284.6 1136.7,1227C1143.9,1203.15 1143.9,1201.8 1136.25,1193.25C1126.8,1182.9 1232.55,904.35 1283.4,962.85C1303.65,986.7 1325.7,1011 1332,1016.85C1343.7,1027.65 1404.9,1058.25 1469.25,1085.7C1489.05,1093.8 1512.45,1105.5 1521.9,1111.35L1538.1,1121.7L1557.45,1112.25C1567.8,1106.85 1589.85,1097.4 1606.05,1091.1C1622.25,1085.25 1647.9,1074.45 1662.75,1067.25C1677.6,1060.05 1701,1051.95 1714.95,1048.8L1740.15,1043.85L1745.55,1006.95C1752.75,960.6 1762.65,920.55 1772.1,900.75C1781.1,881.85 1814.4,831.9 1869.75,756.75C1892.25,725.7 1913.4,696 1916.1,690.6C1919.25,685.2 1921.5,665.4 1921.5,646.05L1921.5,611.85L1894.95,613.65L1868.85,615.45L1881,589.35C1897.65,554.7 1909.8,503.85 1906.2,485.4C1903.05,469.65 1886.4,439.5 1882.8,443.1C1881.45,444.45 1880.1,456.15 1879.2,469.2C1877.85,501.6 1851.3,553.8 1818,591.15L1792.35,619.05L1779.75,610.95C1772.55,606.45 1742.4,340.95 1752.75,376.05C1768.95,432.75 1772.1,439.5 1781.55,440.85C1805.85,444.45 1830.15,429.6 1822.95,415.65C1817.77,440.947 2625.45,404.488 2642.85,333.3C2675.25,325.2 2680.65,322.05 2702.7,299.55L2727,274.35L2715.75,255.45C2700.45,228.9 2700,191.1 2714.85,177.15C2720.7,171.75 2727.45,167.25 2730.15,167.25C2738.25,167.25 2749.5,183.45 2749.5,194.7C2749.5,218.1 2781.9,255 2823.3,279.3C2841.3,289.65 2848.5,296.4 2846.7,300.9C2844.9,304.95 2850.3,314.85 2859.75,325.2C2869.2,335.55 2874.15,345.45 2872.8,349.5C2871,353.1 2873.25,361.2 2877.3,367.5C2880.78,377.221 2879.9,386.795 2890.35,394.5C2865.78,394.577 2757.24,640.705 2628.35,880.206ZM2885.25,2782.23C2885.25,2777.73 2787.5,2696.78 2781.65,2699.03C2777.6,2700.39 2713.75,2697.81 2713.75,2697.81L2720.72,2750.25C2720.72,2760.15 2718.87,2777.38 2720.22,2777.38C2721.12,2777.38 2733.68,2781.47 2741.78,2776.52C2761.58,2764.37 2766.79,2761.54 2811.79,2776.84C2832.94,2784.49 2857.85,2780.82 2858.74,2780.82C2859.2,2781.27 2885.25,2784.48 2885.25,2782.23ZM2270.25,1265.25C2277.77,1258.12 2267.09,1240.79 2257.65,1242.75C2252.36,1243.85 2248.65,1255.35 2251.8,1263C2254.5,1270.65 2264.54,1270.67 2270.25,1265.25ZM2239.2,1174.8C2241,1171.65 2241.9,1166.17 2237.85,1163.92C2233.8,1161.67 2228.4,1159.5 2229.75,1156.8C2233.8,1150.5 2228.85,1151.85 2221.2,1159.5C2217.6,1163.55 2215.35,1169.4 2216.7,1173C2219.85,1181.1 2234.7,1182 2239.2,1174.8ZM2151,903.45C2151,902.55 2152.35,898.05 2153.7,894C2155.5,889.5 2154.6,887.25 2150.55,888.15C2146.95,889.05 2144.7,886.8 2145.6,884.1C2146.5,877.35 2145.6,877.35 2135.7,880.95C2128.5,883.65 2125.8,896.7 2131.65,902.1C2134.8,905.7 2151,906.6 2151,903.45ZM2160.45,784.65L2169.45,745.5L2140.65,718.5C2125.35,703.65 2106.6,691.341 2098.5,685.041C2093.01,681.44 2087.05,677.72 2084.87,674.945C2082.62,671.436 2086.75,655.198 2090.25,640.2C2094.3,623.1 2095.65,609.6 2093.4,607.35C2091.15,605.1 2081.25,600.6 2071.8,597C2053.35,590.7 2049.3,592.05 2028.15,609.15L2015.55,619.5L2031.3,653.7C2039.85,673.05 2048.85,689.7 2051.55,691.5C2054.25,692.85 2056.5,708.6 2056.5,727.05C2056.5,754.95 2058.3,762.15 2069.55,779.7C2085.3,804.45 2108.7,826.5 2124.9,832.8C2133.9,836.4 2136.6,839.55 2134.8,845.4C2133.45,849.9 2136.15,846.75 2141.55,838.65C2146.95,830.55 2155.5,806.25 2160.45,784.65ZM2722.05,495.3C2729.7,492.6 2736,488.55 2736,486.75C2736,483.15 2696.85,493.95 2691.45,498.45C2686.95,502.05 2708.55,499.8 2722.05,495.3ZM2700.45,443.55C2717.55,439.95 2731.5,434.55 2731.5,432.3C2731.5,429.6 2727.9,428.7 2723.85,430.05C2655.9,451.2 2648.7,455.25 2700.45,443.55ZM2698.2,385.05C2718,381 2736.9,375.6 2740.5,373.35C2746.35,369.75 2745.9,369.3 2739.6,371.55C2735.55,372.9 2715.3,376.05 2694.6,378.75C2673.9,381.45 2655.45,385.95 2653.2,388.2C2646.9,394.05 2657.7,393.15 2698.2,385.05ZM1854.45,369.3C1857.6,363.45 1857.6,360.75 1854.9,362.55C1852.2,363.9 1849.05,361.65 1847.25,356.7C1845.9,351.75 1841.85,346.8 1837.8,345.45C1832.85,343.65 1832.4,344.55 1836,351.75C1838.25,356.25 1840.5,364.35 1840.5,369.3C1840.5,381.45 1847.7,381.45 1854.45,369.3ZM1850.85,319.8C1863,319.8 1863.9,318.9 1856.25,315.75C1851.3,313.5 1841.4,311.7 1834.65,311.7C1822.95,311.25 1822.5,312.15 1827.45,321.15C1831.05,327.45 1833.75,329.25 1835.1,325.65C1836,322.95 1843.2,320.25 1850.85,319.8Z" style="fill:rgb(102,62,51);fill-rule:nonzero;"/>
        </g>
        <g id="Mann-Lippen" serif:id="Mann Lippen" transform="matrix(0.189027,0,0,0.189027,374.902,454.857)">
            <path d="M1711.8,627.15C1708.65,625.35 1705.95,619.95 1705.05,615C1703.7,608.25 1699.2,605.55 1685.7,604.65C1673.41,603.96 1667.05,601.582 1666.35,594.75C1665,590.25 1660.95,584.85 1656.9,583.05C1645.65,578.55 1665.9,573.15 1696.95,572.7C1721.7,572.25 1723.05,573.15 1741.05,592.5C1751.4,603.75 1758.6,615 1757.25,617.25C1755.9,619.5 1747.35,623.55 1737.9,626.25C1718.1,631.65 1718.1,631.65 1711.8,627.15Z" style="fill:rgb(102,62,51);fill-rule:nonzero;"/>
        </g>
        <g transform="matrix(0.189027,0,0,0.189027,374.902,454.857)">
            <path d="M2767.05,3669.6C2748.6,3687.6 3322.28,3191.39 3196.73,3095.54C3129.68,3044.69 2994.21,2903.52 2994.21,2903.52C2994.21,2903.52 2767.63,3011.91 2746.03,3048.36C2729.83,3076.26 2785.05,3535.95 2787.3,3566.55C2788.65,3584.1 2790.9,3607.95 2792.25,3619.65L2793.78,3641.25L2767.05,3669.6Z" style="fill:rgb(84,0,0);fill-rule:nonzero;"/>
        </g>
        <g id="Weste" transform="matrix(0.189027,0,0,0.189027,374.902,454.857)">
            <path d="M2337.75,1573.95C2340.9,1581.6 2016.36,1306.64 1835.14,1043.5C1831.68,1038.48 1826.93,1029.48 1822.22,1019.92C1813.58,1002.39 1805.1,983.014 1805.1,983.014C1791.99,984.888 1785.94,873.937 1795.19,862.556C1804.19,843.206 1815.75,830.55 1869.75,756.75C1892.7,725.7 1913.4,696 1916.55,690.6C1919.25,685.2 1919.72,635.2 1919.72,615.85L2026.66,706.629C2064.62,792.058 2134.93,826.817 2142.57,829.336C2149.68,831.681 2165.45,758.241 2185.76,620.585C2195.94,551.622 2209.28,461.373 2232.34,393.006C2232.34,393.006 2280.91,386.817 2292.75,385.05C2335.05,378.3 2383.65,373.35 2468.7,366.15C2488.95,364.35 2507.85,360.75 2511.45,357.6C2515.05,354.9 2703.15,759 2700.9,764.85C2700,767.55 2705.22,795.691 2713.76,839.341C2722.32,882.991 2734.65,950.7 2738.25,978.6C2742.75,1010.1 2749.5,1037.55 2756.7,1051.95C2763.9,1067.25 2767.5,1083 2767.5,1098.3C2767.5,1112.7 2771.1,1128.45 2776.5,1139.25C2781.45,1149.15 2805.97,1186.04 2815.06,1226.8C2822.03,1258.07 2833.71,1258.33 2848.45,1289.91C2865.69,1326.84 2877.1,1369.07 2880.98,1373.92C2888.63,1383.37 2900.7,1405.65 2904.75,1417.35C2909.25,1429.05 2916.45,1448.4 2920.95,1460.55C2925.9,1473.15 2928.15,1484.4 2925.9,1486.65C2923.65,1488.9 2900.63,1500.61 2898.74,1507.65C2895.25,1520.69 2786.4,1589.7 2586.6,1700.85L2560.95,1714.8L2499.3,1646.4C2465.55,1608.6 2409.3,1541.1 2374.2,1496.1C2339.55,1451.1 2310.3,1415.1 2309.4,1416C2306.25,1418.7 2331.9,1560 2337.75,1573.95ZM2306.19,1355.93C2316.28,1350.4 2305.92,1334.75 2296.05,1338.04C2286.18,1347.09 2295.26,1362.03 2306.19,1355.93ZM2266.89,1262.86C2273.8,1256.4 2263.96,1243.82 2255.71,1248.21C2244.04,1254.41 2254.74,1274.2 2266.89,1262.86ZM2235.79,1175.98C2240.92,1169.32 2233.69,1158.07 2223.82,1162.02C2214.13,1171.41 2222.04,1187.65 2235.79,1175.98ZM2131.65,902.1C2134.8,905.7 2146.6,904.566 2147.95,900.516C2150.65,897.627 2148.62,883.445 2137.04,884.016C2129.84,886.716 2125.8,896.7 2131.65,902.1Z" style="fill:rgb(73,77,84);fill-rule:nonzero;"/>
        </g>
        <g id="Weste1" serif:id="Weste" transform="matrix(0.189027,0,0,0.189027,374.902,454.857)">
            <path d="M2163.77,528.816C2254.61,710.302 2069.32,687.683 2103.97,578.702C2126.92,547.652 2163.77,528.816 2163.77,528.816Z" style="fill:rgb(73,77,84);fill-rule:nonzero;"/>
        </g>
        <g id="Socke" transform="matrix(0.189027,0,0,0.189027,374.902,454.857)">
            <path d="M4052.25,3423.45C4047.3,3420.3 4032,3414 4018.05,3410.4C3996,3403.65 3989.25,3398.7 3960.9,3367.65L3929.4,3332.55L3963.6,3315.45C3982.5,3306 4015.8,3288.45 4037.4,3276.3C4059,3264.15 4078.8,3254.25 4081.05,3254.25C4087.35,3254.25 4158,3325.35 4158,3331.65C4158,3334.8 4147.2,3353.7 4134.15,3373.5C4101.3,3423.45 4075.2,3439.65 4052.25,3423.45Z" style="fill:rgb(73,77,84);fill-rule:nonzero;"/>
        </g>
        <g transform="matrix(0.189027,0,0,0.189027,374.902,454.857)">
            <path d="M1838.87,1370.86C1952.64,1356.39 1949.96,1738.4 1825.65,1736.4C1822.5,1735.95 1810.35,1740.9 1797.75,1746.75C1751.4,1768.35 1689.75,1762.5 1627.65,1730.1C1590.78,1707.87 1590.51,1699.39 1580.85,1659C1566.39,1613.44 1565.54,1599.96 1550.25,1575.3C1539,1563.15 1530,1550.55 1530,1546.5C1530,1542.45 1529.38,1524.45 1518.13,1513.65C1506.88,1502.85 1484.1,1492.05 1477.8,1482.6C1471.5,1473.6 1450.8,1447.95 1431.9,1425.45C1384.2,1370.1 1381.95,1366.95 1378.8,1351.2C1376.55,1339.5 1377.45,1336.8 1386.45,1333.65C1395.9,1330.05 1395,1328.7 1372.5,1316.55C1352.7,1306.2 1345.5,1299 1335.6,1279.65L1323.45,1255.8L1314,1274.25C1309.05,1284.15 1303.65,1292.25 1302.3,1292.25C1300.5,1292.25 1300.95,1277.4 1302.75,1259.85C1305.9,1223.85 1321.2,1189.65 1340.1,1174.8L1351.35,1166.25L1338.75,1166.25C1330.2,1166.25 1321.65,1171.65 1309.95,1184.25C1300.95,1194.15 1291.95,1200.9 1290.15,1199.55C1288.35,1197.75 1286.55,1189.2 1286.55,1180.2C1285.65,1164.9 1285.65,1164.9 1283.85,1177.5C1282.5,1185.15 1276.65,1196.4 1270.35,1203.15C1260,1213.95 1259.1,1218 1261.35,1236.9C1263.15,1248.6 1265.4,1262.55 1267.2,1267.95C1269.45,1276.05 1267.2,1278.3 1249.2,1282.8C1237.95,1285.5 1219.5,1287.75 1208.25,1287.75L1187.1,1287.75L1201.05,1276.05C1209.15,1269.75 1217.25,1259.85 1219.95,1254.45C1222.65,1249.5 1219.5,1251.75 1212.75,1259.85C1189.8,1287.75 1159.65,1295.4 1142.55,1278.3C1134.9,1270.65 1133.55,1265.7 1135.8,1250.4C1137.6,1240.05 1141.2,1229.25 1143.45,1226.1C1148.85,1219.8 1144.8,1203.6 1134.9,1192.35C1126.35,1182.45 1113.3,1182 1096.2,1191C1080,1199.55 1048.05,1199.55 1027.35,1191C1002.6,1180.65 980.1,1182.45 965.25,1195.95C958.5,1202.25 949.95,1206.3 946.35,1204.95C942.75,1203.6 937.8,1202.25 935.55,1202.25C924.3,1202.25 913.5,1183.35 913.5,1163.55C913.5,1132.05 945.45,1090.2 992.25,1060.5C1014.3,1046.1 1017,1042.5 1023.75,1019.1C1042.2,954.3 1040.4,957 1057.05,955.65C1066.95,954.75 1076.4,957 1084.5,963.3C1096.65,972.3 1097.1,972.3 1106.55,963.3C1111.5,958.35 1116,954.184 1116,956.884C1116,961.384 1145.25,981.75 1152.45,981.75C1154.7,981.75 1156.5,975.45 1156.5,967.8C1156.5,958.8 1160.55,949.8 1166.85,943.5C1172.25,937.65 1180.35,928.2 1184.4,921.9C1204.65,892.65 1232.55,904.35 1283.4,962.85C1303.65,986.7 1325.7,1011 1332,1016.85C1343.7,1027.65 1417.95,1064.55 1473.75,1087.5C1491.3,1094.7 1512.45,1105.5 1521.9,1111.35L1538.1,1121.7C1538.1,1121.7 1675.65,1350.75 1694.55,1388.55C1704.45,1408.8 1785.32,1385.7 1838.87,1370.86ZM1806.3,1726.5C1811.25,1722.9 1813.5,1719.75 1810.8,1719.75C1808.55,1719.3 1800.9,1714.8 1793.7,1708.5C1781.55,1699.05 1781.1,1696.8 1786.95,1689.6C1792.8,1681.95 1792.8,1681.95 1783.8,1689.15C1768.95,1701.75 1742.85,1710.75 1720.35,1710.75C1693.8,1710.75 1698.75,1717.05 1732.5,1726.05C1764.45,1734.6 1795.5,1734.6 1806.3,1726.5ZM1890,1590.6C1890,1587 1884.15,1592.85 1840.5,1637.85L1793.25,1686L1841.85,1638.75C1868.4,1613.1 1890,1591.05 1890,1590.6ZM1755.9,1488C1778.08,1461.06 1778.49,1458.98 1760.85,1478.1C1753.2,1485.3 1740.6,1500.6 1732.5,1511.85C1718.1,1533 1721.25,1529.85 1755.9,1488ZM1804.05,1519.95C1809,1513.65 1806.75,1513.2 1791.9,1516.8C1790.1,1517.25 1795.5,1526.25 1797.3,1526.25C1797.71,1526.25 1798.59,1525.69 1799.69,1524.73C1800.99,1523.59 1802.58,1521.9 1804.05,1519.95ZM1824.75,1467.75C1831.05,1455.6 1835.1,1445.25 1833.75,1445.25C1832.85,1445.25 1826.55,1455.6 1820.25,1467.75C1813.95,1480.35 1809.9,1490.25 1811.25,1490.25C1812.15,1490.25 1818.45,1480.35 1824.75,1467.75ZM1797.75,1440.75C1807.2,1430.85 1814.4,1422.75 1813.05,1422.75C1811.7,1422.75 1802.7,1430.85 1793.25,1440.75C1783.8,1450.65 1774.73,1462.49 1776.08,1462.49C1777.43,1462.49 1788.3,1450.65 1797.75,1440.75ZM1156.95,1259.85C1157.4,1256.7 1157.85,1249.95 1158.3,1245C1158.3,1239.6 1161.45,1236.45 1165.5,1237.8C1178.55,1240.95 1183.05,1240.5 1183.5,1236C1184.85,1226.1 1170.9,1222.95 1158.75,1231.05C1145.25,1239.6 1140.75,1248.6 1144.8,1258.5C1147.95,1266.6 1156.5,1267.5 1156.95,1259.85ZM1201.5,1203.6L1201.5,1186.95L1187.55,1200.45L1174.05,1213.5L1184.4,1216.2C1190.25,1218 1196.1,1219.35 1198.35,1219.8C1200.15,1220.25 1201.5,1212.6 1201.5,1203.6ZM1240.65,1185.6C1239.3,1181.1 1238.4,1184.7 1238.4,1193.25C1238.4,1201.8 1239.3,1205.4 1240.65,1201.35C1241.55,1196.85 1241.55,1189.65 1240.65,1185.6ZM1007.1,1118.55C991.8,1110.45 984.15,1096.95 987.75,1084.8C990.45,1077.15 989.1,1075.8 982.35,1077.15C977.85,1078.05 973.8,1083.45 972.45,1089.75C970.65,1102.8 994.95,1125.75 1010.25,1125.75C1017.9,1125.3 1017.45,1124.4 1007.1,1118.55ZM1053.21,1084.33C1053.21,1078.48 1049.28,1060.86 1042.98,1054.11C1030.51,1038.18 1014.85,1043.17 1020.5,1060.73C1020.5,1071.98 1040.85,1098.3 1045.35,1095.6C1047.15,1094.7 1053.21,1090.18 1053.21,1084.33Z" style="fill:rgb(123,74,57);fill-rule:nonzero;"/>
        </g>
        <g id="Finger" transform="matrix(0.189027,0,0,0.189027,374.902,454.857)">
            <path d="M2759.57,324.12C2759.57,324.12 2555.76,420.351 2611.56,443.301C2577.43,524.318 2767.93,561.315 2829.82,492.25L2759.57,324.12Z" style="fill:rgb(123,74,57);fill-rule:nonzero;"/>
        </g>
        <g id="Schatten-Ohr" serif:id="Schatten Ohr" transform="matrix(0.189027,0,0,0.189027,374.902,454.857)">
            <path d="M1896.75,290.55C1921.95,330.15 1882.8,441.75 1871.1,441.75C1854.45,441.75 1829.7,428.25 1823.4,416.1C1821.15,411.6 1813.5,387.3 1806.75,361.65C1795.95,321.15 1795.05,313.05 1799.55,297.75C1806.3,274.8 1827.45,257.25 1847.7,257.25C1870.2,257.25 1879.2,263.55 1896.75,290.55ZM1855.35,369.3C1856.7,363.9 1856.7,361.2 1855.35,362.55C1853.55,363.9 1850.4,360.75 1847.7,355.35C1845,349.95 1840.05,345 1836.9,343.65C1831.95,342.3 1831.5,343.65 1835.55,350.85C1838.25,355.8 1840.5,364.35 1840.5,369.3C1840.5,381.45 1852.2,381.45 1855.35,369.3ZM1850.85,320.25C1861.65,320.25 1863.45,318.9 1858.5,315.75C1850.4,310.35 1822.5,309.9 1822.5,314.85C1822.5,321.15 1833.3,330.15 1835.1,324.75C1836,322.5 1843.2,320.25 1850.85,320.25Z" style="fill:rgb(123,74,57);fill-rule:nonzero;"/>
        </g>
        <g id="Absatz-links" serif:id="Absatz links" transform="matrix(0.189027,0,0,0.189027,374.902,454.857)">
            <path d="M2093.2,3108.21C2119.24,3078.58 2073.47,3215.89 2071.59,3217.95C2072.99,3215.38 2067.55,3203.03 2062.35,3201.15C2052.45,3196.2 2054.7,3195.3 1974.15,3232.2C1937.25,3249.3 1906.2,3263.25 1905.3,3263.25C1904.4,3263.25 1903.5,3260.1 1903.5,3256.5C1903.5,3252.45 1914.3,3244.8 1928.7,3238.5C1996.65,3208.35 2072.5,3148.71 2093.2,3108.21Z" style="fill:rgb(111,97,72);fill-rule:nonzero;"/>
        </g>
        <g id="Absatz-rechts" serif:id="Absatz rechts" transform="matrix(0.189027,0,0,0.189027,374.902,454.857)">
            <path d="M3461.4,3445.05C3457.44,3440.84 3444.17,3430.63 3443.07,3429.14C3441.26,3426.37 3455.73,3414.88 3461.95,3411.87C3471.71,3407.16 3481.72,3406.62 3497.58,3407.62C3515.95,3408.78 3520.25,3410.77 3528.26,3412.97C3540.97,3416.46 3548.42,3423.23 3551.01,3424.82C3556.81,3428.4 3574.38,3443.43 3572.9,3442.99C3572.9,3438.93 3551,3469.66 3548.7,3476.55C3539.25,3505.35 3539.7,3522.9 3550.5,3579.15C3561.75,3637.2 3561.75,3636.75 3548.25,3636.75C3541.95,3636.75 3537,3636.3 3537,3635.85C3533.4,3609.75 3522.15,3559.35 3514.95,3535.05C3504.6,3499.95 3491.1,3477.45 3461.4,3445.05Z" style="fill:rgb(111,97,72);fill-rule:nonzero;"/>
        </g>
        <g transform="matrix(0.189027,0,0,0.189027,374.902,454.857)">
            <path d="M1028.38,1118.81C1028.38,1111.61 1002.08,1101.68 1001.08,1095.38C991.178,1085.93 1012.64,1071.15 1020.21,1070.03C1036.31,1067.64 1048.96,1097.03 1042.31,1103.74C1044.11,1102.84 1028.38,1125.56 1028.38,1118.81Z" style="fill:rgb(112,89,80);fill-rule:nonzero;"/>
        </g>
        <g id="Frau1" serif:id="Frau" transform="matrix(0.189027,0,0,0.189027,374.902,454.857)">
            <path d="M2745.73,3050.36C2745.73,3050.36 2382.75,3250.65 2376.45,3254.25C2365.2,3260.1 2183.4,3440.55 2149.2,3480.15C2135.94,3495.38 2117.39,3513.01 2119.18,3525.91C2119.18,3525.91 2012.23,3549.71 2001.43,3518.21C1978.93,3430.6 1978.98,3415.24 2005.2,3368.55C2019.15,3346.5 2034.9,3319.5 2040.75,3308.25C2056.05,3277.65 2088.12,3241.25 2093.97,3195.8C2103.87,3114.8 2093.85,3085.5 2176.2,3085.5C2221.65,3085.5 2231.55,3086.85 2238.3,3093.6C2248.2,3103.05 2268.45,3103.5 2286.45,3094.05C2304.45,3085.05 2335.95,3056.25 2333.25,3051.75C2331.9,3049.5 2322.9,2996.85 2313,2933.85C2292.3,2802 2284.65,2770.05 2257.2,2699.85C2233.35,2637.75 2213.1,2595.9 2168.1,2516.25C2114.55,2420.85 2073.74,2313.3 2067.45,2284.05C2064.3,2269.65 2049.3,2213.85 2047.5,2160.75C2051.87,2057.25 2048.14,2015.85 2015.1,1940.25C2003.85,1901.55 1997.1,1888.05 1979.55,1866C1950.3,1829.1 1939.05,1818.75 1858.5,1758C1820.25,1728.75 1786.95,1703.1 1784.7,1701.3C1782,1699.05 1788.3,1690.5 1800.45,1680.6C1847.25,1641 1917,1562.25 1917,1548.3C1917,1542.9 1912.5,1537.95 1905.3,1535.25C1890.9,1529.4 1876.05,1537.05 1851.75,1561.8C1842.3,1572.15 1832.85,1580.25 1831.05,1580.25C1829.25,1580.25 1843.2,1557.75 1861.2,1530.75C1898.1,1475.4 1903.05,1457.4 1883.25,1449.75C1865.25,1443 1853.1,1451.1 1822.5,1490.7C1786.95,1537.95 1782,1542.9 1797.3,1517.25C1822.05,1475.85 1849.5,1418.25 1849.5,1407.45C1849.5,1397.1 1839.15,1382.25 1831.95,1382.25C1825.2,1382.25 1811.95,1402.17 1814.4,1398.45C1816.48,1395.3 1804.48,1383.6 1796.4,1391.25C1790.52,1396.82 1717.2,1450.65 1694.7,1475.85C1692.47,1478.53 1677.04,1493.37 1662.81,1509.02C1648.38,1524.88 1635.11,1541.54 1629.45,1542.9C1623.6,1544.25 1612.35,1542 1603.35,1537.95C1588.05,1530.75 1587.6,1530.3 1594.8,1519.5C1598.85,1513.65 1602,1499.25 1602,1488.45C1602,1472.25 1600.2,1466.85 1592.55,1462.8C1585.35,1459.2 1581.75,1459.2 1577.7,1463.7C1575,1467.3 1572.3,1465.5 1563.75,1472.7C1558.8,1476.3 1549.35,1481.7 1542.6,1484.85C1529.1,1490.25 1523.25,1505.55 1526.85,1524.45C1528.65,1535.25 1528.65,1535.25 1519.2,1527.6C1501.2,1512.3 1479.6,1488 1473.3,1475.85C1469.7,1469.1 1462.5,1458.75 1456.65,1452.9C1451.25,1447.05 1434.15,1427.7 1418.4,1410.15C1376.1,1362 1367.55,1340.4 1386.9,1333.2L1396.8,1329.6L1385.55,1323.3C1379.7,1319.7 1368.9,1313.85 1361.25,1310.25C1353.6,1306.2 1343.25,1294.05 1336.05,1279.65L1323.45,1256.25L1311.75,1275.15L1299.6,1294.5L1302.75,1263C1305.9,1226.55 1315.8,1201.35 1335.6,1180.2C1353.15,1161.75 1353.15,1159.95 1337.85,1163.55C1330.65,1165.35 1318.05,1174.8 1308.6,1185.15L1292.4,1203.6L1287.9,1183.8C1283.85,1166.25 1283.4,1165.35 1282.95,1177.95C1282.5,1195.05 1271.25,1207.2 1268.1,1194.15C1266.75,1189.65 1259.55,1181.55 1252.35,1176.15L1238.85,1166.7L1236.15,1195.95C1231.2,1262.1 1170,1311.6 1141.2,1272.9C1132.2,1260.75 1132.2,1259.85 1139.85,1238.7C1149.75,1210.35 1149.75,1205.85 1137.15,1194.15C1125,1182.45 1114.2,1181.55 1096.2,1191C1079.55,1199.55 1048.05,1199.55 1026.9,1190.55C1000.35,1179.3 978.3,1181.1 965.25,1195.05C952.2,1209.45 939.6,1208.1 923.4,1190.55C909,1174.35 909.9,1148.25 926.55,1124.4C945.45,1096.5 964.8,1077.6 992.25,1060.5C1017.45,1044.3 1025.1,1029.9 1032.75,985.35C1034.1,975.9 1038.6,965.55 1042.2,961.5C1051.65,952.05 1071.9,952.95 1084.95,963.3C1094.4,970.5 1097.1,970.95 1104.3,966C1111.5,960.6 1114.65,961.05 1129.95,970.95C1152.45,984.9 1156.5,984.45 1156.5,967.8C1156.5,959.25 1160.55,949.35 1165.5,943.95C1170.9,938.55 1179.45,929.1 1184.85,922.35C1190.25,915.6 1199.7,908.85 1206,907.5C1216.8,904.8 1218.15,907.05 1229.85,936.75C1246.95,981.3 1256.85,1025.4 1254.15,1049.25C1250.55,1083.9 1258.2,1089.3 1282.05,1069.5C1296.45,1057.35 1316.25,1011.9 1311.75,1000.65C1310.4,997.05 1316.7,1001.55 1326.15,1011C1335.15,1020 1362.15,1036.65 1387.8,1049.25C1422,1065.45 1438.65,1076.7 1454.85,1093.8C1466.55,1105.95 1476,1118.1 1476,1119.9C1476,1122.15 1464.3,1129.35 1450.35,1135.65C1435.95,1142.4 1418.4,1154.1 1410.75,1161.75L1397.25,1175.7L1409.85,1171.2C1417.05,1168.5 1435.5,1166.25 1450.8,1166.25C1477.8,1166.25 1480.5,1165.35 1507.95,1144.2C1541.25,1119.45 1563.75,1106.85 1606.05,1091.1C1622.25,1085.25 1647.9,1074.45 1662.75,1067.25C1677.6,1060.05 1701,1051.95 1714.95,1048.8C1726.95,1046.34 1739.01,1043.86 1748.63,1042.59L1829.66,1034.54L1855.35,1028.55C1908.45,1016.4 1969.2,993.9 2043,959.25C2083.95,940.35 2125.35,921.9 2135.25,918.75C2168.1,908.4 2196,891.75 2223,867C2258.55,834.6 2315.7,792.3 2355.3,769.8C2414.25,735.6 2472.3,697.35 2509.65,667.65C2529.25,648.663 2540.68,641.777 2545.37,635.896C2547.71,632.952 2544.75,628.95 2544.75,628.95C2544.75,628.95 2508.3,386.4 2512.8,368.4C2515.5,356.25 2534.4,349.5 2580.75,345C2595.6,343.2 2623.5,338.25 2642.85,333.3C2675.25,325.2 2680.65,322.05 2702.7,299.55L2727,274.35L2715.75,255.45C2700.45,228.9 2700,191.1 2714.85,177.15C2720.7,171.75 2727.45,167.25 2730.15,167.25C2738.25,167.25 2749.5,183.45 2749.5,195.15C2749.5,201.45 2756.7,216.75 2765.25,228.45C2771.43,240.434 2812.01,272.389 2826.9,280.2C2843.1,291 2848.05,296.4 2846.25,302.25C2844.9,306.75 2846.25,312.15 2849.4,314.4C2853,316.65 2845.35,318.9 2828.25,320.7L2801.25,323.4L2830.05,323.4C2854.35,322.95 2860.2,324.75 2866.95,333.3C2871.45,338.7 2873.7,346.35 2872.35,349.95C2871,353.55 2873.25,361.2 2877.3,367.5C2880.17,373.855 2880.9,385.95 2890.35,394.5C2904.3,406.65 2916,411.6 2948.85,419.25C3017.25,434.55 3100.5,445.35 3119.85,440.85C3142.8,435.9 3165.75,440.4 3180.6,453C3187.35,458.4 3201.3,468.3 3212.1,475.05C3232.35,487.65 3244.5,508.35 3244.5,529.05C3244.5,534.9 3250.8,546.6 3258.9,554.7C3276.9,574.5 3294.9,613.65 3297.6,639.75C3299.4,659.1 3298.5,660.9 3276.45,683.4C3262.05,697.8 3240.45,713.1 3219.3,723.45L3185.38,740.111L3112.2,742.35C3052.35,744.15 3031.65,742.8 3003.3,736.5C2983.5,732 2952.45,728.85 2934,728.85C2915.55,729.3 2882.25,727.5 2860.65,725.25C2816.1,719.85 2794.5,723.9 2732.4,748.2L2697.3,762.15L2691.9,788.25C2680.65,840.9 2659.5,846.75 2629.8,805.35C2620.35,792.3 2617.04,764.768 2615.24,762.968C2613.89,760.718 2590.65,794.1 2570.4,817.05C2528.1,865.65 2466.45,918.75 2398.5,965.1C2372.4,982.65 2343.15,1004.7 2332.8,1014.15C2322.9,1023.15 2301.75,1036.65 2285.55,1043.85C2262.15,1054.65 2167.2,1119 2119.95,1156.35L2109.6,1164.9L2131.65,1186.95C2146.05,1201.35 2157.75,1218.9 2165.4,1238.25C2208.58,1376.08 2220.77,1418.61 2265.01,1472.62C2316.76,1562.62 2330.99,1603.98 2392.64,1680.03C2432.69,1729.08 2443.56,1746.05 2453.46,1772.15C2470.56,1816.25 2550.76,1941.38 2591.26,2002.58C2618.05,2060.43 2652.17,2101.18 2793.49,2233.4C2828.14,2271.65 2880.34,2333.33 2909.14,2369.33C3009.49,2495.33 3196.32,2730.8 3201.72,2741.15C3204.42,2746.55 3228.05,2785.02 3230.75,2783.67C3232.74,2781.51 3233.91,2785.68 3237.3,2793.45C3241.8,2811 3371.4,3014.85 3421.8,3083.25C3448.8,3120.6 3476.7,3148.5 3511.8,3175.05C3570.75,3219.6 3649.5,3305.1 3699,3378.45C3716.1,3403.2 3736.35,3430.2 3744.9,3437.4C3757.95,3450 3816.9,3499.95 3842.1,3520.65C3849.3,3526.5 3851.1,3532.35 3850.2,3544.5C3849.3,3553.5 3847.95,3561.6 3846.6,3562.5C3845.7,3563.4 3821.4,3567.45 3793.05,3570.6C3744.45,3576.9 3740.4,3576.45 3717.9,3568.35C3687.3,3556.65 3663.22,3531.4 3608.77,3473.8C3551.17,3413.05 3536.86,3406.72 3493.66,3406.72C3464.86,3406.72 3458.7,3410.85 3451.5,3419.85L3443.04,3428.43L3435.75,3407.7C3430.35,3391.5 3433.29,3379.21 3435.54,3359.41C3438.24,3332.86 3434.4,3330.3 3413.7,3297.45C3384.45,3250.65 3324.15,3194.85 3197.25,3098.1C3163.95,3072.45 3114.9,3027.9 3068.55,2980.65L2993.4,2904.15L2940.3,2932.05C2910.6,2947.35 2855.7,2980.2 2817.45,3004.95L2745.73,3050.36ZM3053.7,2861.85L3066.75,2847L3052.35,2860.05C3038.4,2872.65 3035.25,2876.25 3038.85,2876.25C3039.48,2876.25 3042.76,2872.93 3047.31,2868.32C3049.25,2866.34 3051.41,2864.14 3053.7,2861.85ZM2880,2779.95C2880,2777.7 2804.4,2730.45 2774.25,2714.25L2747.25,2699.85L2762.55,2712.9C2775.6,2724.15 2776.5,2726.85 2770.2,2729.1C2765.7,2730.9 2754.45,2732.25 2744.55,2732.25L2720.77,2732.25L2723.65,2752.5L2723.17,2773.98L2743.2,2761.5C2752.2,2755.2 2764.35,2750.25 2769.75,2750.25C2775.15,2750.25 2800.8,2757.45 2826.45,2766C2872.8,2781.3 2880,2783.1 2880,2779.95ZM1832.38,1324.58C1837.34,1322.78 1852.82,1313.75 1834.2,1316.1C1828.52,1316.82 1802.7,1331.4 1791.9,1345.8C1775.7,1367.85 1780.65,1367.4 1800,1344.9C1810.35,1333.65 1827.43,1325.93 1832.38,1324.58ZM1160.1,1250.85C1161.45,1240.05 1162.8,1238.7 1174.95,1241.4C1184.85,1243.2 1188,1242.3 1188,1236.9C1188,1227 1172.25,1222.95 1160.1,1229.7C1147.05,1236.45 1143,1242.3 1143,1255.35C1143,1270.65 1158.3,1266.6 1160.1,1250.85ZM1202.4,1204.05L1200.6,1188.3L1187.1,1200.45C1175.4,1212.15 1174.95,1213.5 1182.15,1216.65C1200.15,1223.4 1204.2,1221.15 1202.4,1204.05ZM1008,1118.1C990.9,1106.4 985.95,1097.4 988.65,1086.15C990.9,1077.15 989.55,1075.8 982.8,1077.15C977.85,1078.05 973.8,1083 972.45,1089.75C970.65,1102.8 994.95,1125.75 1009.8,1125.75C1018.35,1125.75 1017.9,1124.85 1008,1118.1ZM1043.1,1097.85C1048.51,1088.02 1044.51,1065.37 1035.41,1054.82C1031.46,1051.54 1028.64,1049.61 1026,1047.9L1026,1059.6C1025.92,1062.86 1026.68,1070.3 1026.68,1070.3C1026.68,1070.3 1020.36,1072.97 1017,1074C1005.75,1077.6 1005.88,1094.11 1016.68,1100.41C1027.03,1106.71 1038.5,1106.21 1043.1,1097.85ZM2723.85,494.85C2730.6,492.15 2736,488.1 2736,485.85C2736,483.15 2732.4,482.7 2728.35,484.5C2717.1,489 2682,499.35 2668.5,502.05C2662.2,502.95 2669.4,503.4 2684.25,502.05C2699.1,500.7 2716.65,497.55 2723.85,494.85ZM2714.85,441.3C2723.85,439.05 2731.5,435 2731.5,432.75C2731.5,426.45 2728.8,426.9 2691,439.5C2661.75,449.4 2659.95,450.75 2677.5,448.5C2688.75,447.15 2705.4,444 2714.85,441.3ZM2738.7,374.7C2746.35,369.75 2745.9,369.3 2734.65,372C2727.45,373.35 2708.1,376.5 2691,378.3C2659.95,382.35 2650.5,385.5 2650.5,391.8C2650.5,396.3 2727.9,381.45 2738.7,374.7ZM2750.85,321.6C2740.5,320.7 2722.05,320.7 2710.35,321.6C2698.65,322.5 2707.2,322.95 2729.25,322.95C2751.75,322.95 2761.2,322.5 2750.85,321.6Z" style="fill:rgb(141,86,61);fill-rule:nonzero;"/>
        </g>
        <g id="Mann-Nacken" serif:id="Mann Nacken" transform="matrix(0.189027,0,0,0.189027,374.902,454.857)">
            <path d="M2030.01,598.641C1998.64,616.005 1946.94,612.053 1921.73,615.624C1920.52,614.226 1905.89,612.482 1891.88,614.266C1879.59,615.83 1869.13,623.022 1869.13,623.022C1866.82,626.07 1866.81,622.045 1869.02,614.973C1871.28,607.776 1875.83,597.408 1882.02,586.426C1887.14,577.328 1903.02,527.472 1904.71,517.376C1906.52,506.568 1906.75,492.003 1903.57,479.583C1900.12,466.088 1879.38,447.749 1875.15,446.227C1869.45,444.175 1831.06,433.585 1823.86,424.585C1821.61,421.885 1816.65,393.6 1809,365.25C1795.5,314.85 1792.17,308.901 1799.83,289.551C1807.48,268.401 1830.15,254.95 1848.6,254.95C1867.95,254.95 1880.79,261.057 1894,284.798C1901.28,297.89 1911.72,306.765 1911.07,306.438C1911.07,306.438 1919.19,315.883 1927.74,323.533C1951.14,343.783 1972.35,356.25 1993.5,356.25C2014.2,356.25 2026.35,351.3 2043.45,335.1L2054.99,324.617L2070,341.85C2095.99,372.135 2127.28,367.44 2125.23,389.965C2124.25,400.656 2063.22,580.253 2030.01,598.641ZM1843.65,402.15C1839.15,397.65 1836,391.35 1836,388.65C1836,385.95 1834.2,382.35 1831.5,381C1829.25,379.65 1827,380.1 1827,382.35C1827,387.3 1844.55,410.25 1848.15,410.25C1849.5,410.25 1847.7,406.65 1843.65,402.15ZM1872.45,387.75C1876.95,385.05 1881,378.75 1881,373.8C1881,368.85 1884.15,361.2 1888.2,357.15C1896.3,349.5 1894.95,309.9 1886.85,301.8C1883.7,298.65 1883.25,303.15 1885.5,316.65C1889.1,334.2 1887.75,338.25 1873.8,359.85C1865.25,372.45 1854.9,383.25 1851.3,383.25C1848.15,383.25 1845,385.5 1845,387.75C1845,393.6 1861.2,393.6 1872.45,387.75ZM1854,375.15C1854,372.9 1858.05,366.6 1863,360.75C1881.9,339.15 1869.3,318.9 1843.2,328.8C1831.5,333.75 1827,348.6 1836,354C1838.7,355.35 1840.5,361.65 1840.5,367.95C1840.5,374.7 1843.2,378.75 1847.25,378.75C1850.85,378.75 1854,376.95 1854,375.15ZM1911.15,330.6C1909.8,326.1 1908.9,329.7 1908.9,338.25C1908.9,346.8 1909.8,350.4 1911.15,346.35C1912.05,341.85 1912.05,334.65 1911.15,330.6ZM1850.85,320.25C1861.65,320.25 1863.45,318.9 1858.5,315.75C1854.9,313.5 1846.8,311.25 1840.5,311.25L1829.25,311.25L1840.05,305.4C1846.35,302.7 1851.75,296.85 1853.1,293.25C1854.9,287.85 1854,287.4 1849.05,292.35C1845.9,295.05 1841.85,297.75 1840.05,297.75C1834.65,297.75 1832.4,280.65 1837.35,275.7C1843.65,269.4 1866.15,269.4 1869.75,275.25C1871.1,277.95 1875.15,279.75 1877.85,279.75C1881,279.3 1878.3,275.25 1872.45,270.75C1849.05,250.95 1822.5,265.8 1822.5,299.1C1822.5,317.1 1831.5,335.55 1835.1,324.75C1836,322.5 1843.2,320.25 1850.85,320.25Z" style="fill:rgb(141,86,61);fill-rule:nonzero;"/>
        </g>
        <g id="Mann-Mund" serif:id="Mann Mund" transform="matrix(0.189027,0,0,0.189027,374.902,454.857)">
            <path d="M1713.31,629.48C1710.61,627.68 1705.95,619.95 1705.05,615C1703.7,609.6 1698.18,606.449 1690.53,605.099C1684.37,604.762 1679.63,604.517 1676.41,603.526L1694.25,590.7C1702.8,584.85 1708.65,578.55 1707.3,576.3C1707.11,575.383 1706.55,572.751 1706.55,572.751C1706.72,572.582 1712.04,572.199 1717.79,574.015C1724.83,576.237 1730.83,581.577 1735,586.2C1755.95,609.452 1764.28,616.763 1751.85,620.85C1739.7,627.15 1718.71,633.08 1713.31,629.48Z" style="fill:rgb(141,86,61);fill-rule:nonzero;"/>
        </g>
        <g id="Mann-Gesicht" serif:id="Mann Gesicht" transform="matrix(0.189027,0,0,0.189027,374.902,454.857)">
            <path d="M1772.81,606.168C1766.51,602.118 1754.23,591.336 1745.68,583.236C1712.23,554.516 1666.34,540.578 1618.99,549.848C1582.54,560.004 1579.44,557.398 1579.5,490.35C1579.55,438.15 1579.05,435.9 1568.25,427.35C1550.9,415.142 1543.11,398.041 1536.51,347.284C1529.45,302.149 1525.84,286.639 1533.19,277.032C1536.62,272.558 1544.96,268.932 1552.83,263.357C1582.53,241.757 1637.17,209.032 1643.47,209.032C1646.17,209.032 1651.35,222.228 1656.3,233.928C1670.95,260.024 1674,264.849 1700.81,279.907C1727.25,292.727 1735.62,308.33 1751.21,371.393C1757.96,396.593 1769.4,431.85 1777.05,449.85C1784.7,467.4 1794.6,496.2 1798.2,513.3C1804.95,542.55 1804.95,547.95 1797.75,579C1793.7,597.45 1787.71,614.296 1786.36,614.296C1784.56,614.296 1778.66,610.218 1772.81,606.168ZM1645.65,431.4L1658.25,423.3L1631.25,426C1614.15,427.8 1606.05,427.35 1608.75,424.65C1614.6,419.25 1651.5,410.25 1668.15,410.25C1678.05,410.25 1679.4,409.35 1674,405.75C1663.2,398.55 1598.85,400.35 1584,408C1568.7,416.1 1566.9,422.85 1578.6,426.45C1608.3,436.35 1624.5,447.15 1624.95,456.6C1625.4,464.7 1625.85,464.25 1629.45,453C1631.25,445.8 1638.9,435.9 1645.65,431.4Z" style="fill:rgb(141,86,61);fill-rule:nonzero;"/>
        </g>
        <g transform="matrix(0.189027,0,0,0.189027,374.902,454.857)">
            <path d="M2587.5,3730.8C2554.2,3729 2510.55,3724.95 2491.2,3722.7C2471.4,3720 2434.95,3717.75 2410.2,3717.3C2385,3717.3 2358,3715.05 2349.45,3711.9C2330.1,3705.15 2322.45,3694.35 2331,3684.45C2335.95,3678.15 2343.15,3677.7 2376.45,3679.95C2457,3686.25 2506.5,3668.25 2513.7,3630C2517.75,3606.6 2515.5,3597.6 2475.45,3501.75C2423.7,3378 2402.1,3313.2 2369.25,3184.5C2353.5,3122.85 2338.2,3066.15 2335.5,3058.5C2332.8,3051.3 2322.45,2994.6 2312.55,2932.5C2303.1,2870.85 2290.95,2803.8 2285.55,2784C2267.55,2713.8 2223,2610.3 2176.65,2532C2154.15,2493.75 2074.5,2337.6 2067.3,2317.35C2054.25,2280.9 2047.5,2226.9 2047.5,2157.6C2047.5,2080.2 2038.05,2014.05 2016.45,1943.85C2009.25,1919.55 2000.64,1899.75 2001.09,1899.75C2001.99,1899.75 2011.95,1910.1 2020.05,1922.7C2028.15,1934.85 2035.8,1944.75 2036.25,1943.85C2037.15,1942.95 2041.2,1922.25 2045.25,1897.5C2053.35,1849.35 2076.3,1784.1 2097.45,1751.25C2112.75,1726.5 2142.9,1662.15 2152.8,1632.9C2156.85,1621.2 2160,1597.35 2160,1580.25C2160,1551.45 2158.2,1545.6 2134.8,1499.25C2115,1461 2103.75,1444.8 2084.85,1427.25C2056.95,1401.6 2045.25,1397.55 1983.15,1393.5L1939.5,1390.35L1893.15,1417.8C1867.5,1433.1 1843.65,1445.25 1840.5,1445.25C1836.9,1445.25 1857.6,1431.75 1886.4,1415.1L1939.05,1385.4L1924.65,1374.15C1903.5,1357.95 1876.05,1346.25 1859.4,1346.25C1845.9,1346.25 1843.65,1348.5 1836.9,1364.25C1832.85,1374.15 1827.9,1382.25 1826.55,1382.25C1824.3,1382.25 1838.25,1320.15 1841.4,1317C1842.3,1316.1 1874.7,1301.25 1913.85,1284.15C1996.65,1247.25 2009.7,1240.05 2063.25,1200.45C2085.3,1184.25 2107.72,1164.73 2111.32,1164.73C2120.32,1164.73 2152.8,1208.1 2161.35,1227.45C2165.4,1237.35 2178.9,1270.65 2191.05,1302.15C2241,1428.6 2309.4,1546.05 2397.6,1655.4C2447.55,1717.05 2461.05,1737.3 2471.4,1764.75C2488.95,1810.2 2563.2,1945.2 2602.35,2002.8C2619.9,2028 2646.45,2062.65 2661.3,2079.3C2863.35,2302.05 2878.2,2319.6 3013.65,2492.85C3057.3,2549.1 3122.1,2631.45 3157.2,2676C3213.9,2748.45 3235.5,2779.5 3235.5,2788.95C3235.5,2790.75 3231.45,2786.7 3226.5,2780.85C3221.55,2774.55 3208.95,2765.1 3198.6,2760.15C3187.8,2755.2 3163.5,2742.15 3144.15,2730.9C3111.3,2712.45 3107.7,2708.85 3094.2,2681.4C3076.65,2646.75 2989.8,2520.3 2936.25,2451.45C2845.35,2334 2765.25,2249.85 2646,2145.45C2614.95,2118.45 2585.25,2091.9 2579.4,2086.95C2572.65,2081.1 2584.35,2107.65 2613.15,2165.7C2690.1,2318.25 2694.6,2334.9 2709,2527.5C2713.95,2591.85 2719.8,2667.9 2722.05,2696.25C2726.1,2743.5 2733.75,2846.1 2745,3009C2747.25,3043.65 2750.4,3100.35 2751.75,3135C2754,3189.45 2787.27,3569.97 2794.47,3623.07C2796.93,3645.37 2794.68,3644.56 2767.05,3669.6C2748.6,3687.6 2728.35,3702.45 2711.25,3710.55C2696.4,3717.3 2678.4,3725.85 2671.65,3729.45C2664.45,3733.05 2656.35,3735.3 2653.65,3735.3C2650.5,3734.85 2620.8,3732.6 2587.5,3730.8Z" style="fill:rgb(131,16,18);fill-rule:nonzero;"/>
        </g>
        <g transform="matrix(0.189027,0,0,0.189027,439.986,633.46)">
            <path d="M1964.32,469.998C1978.88,485.178 2096.2,631.583 2180.82,730.38L2098.57,768.369C2060.72,723.03 2025.48,677.077 1992.53,629.291C1979.76,570.223 1968.52,513.766 1964.32,469.998Z" style="fill:rgb(213,207,226);fill-rule:nonzero;"/>
        </g>
        <g transform="matrix(0.189027,0,0,0.189027,374.902,454.857)">
            <path d="M1501.2,1509.15C1487.25,1496.1 1473.3,1475.85 1463.4,1455.15C1453.08,1430.98 1402.55,1380.09 1383.86,1366.11C1377.76,1361.56 1376.85,1355.16 1376.27,1350.11C1374.92,1346.06 1390.75,1359.9 1405.6,1374.76C1418.9,1387.61 1421.2,1388.2 1417.5,1380C1391.4,1338.6 1383.75,1285.95 1397.7,1246.35C1404.9,1224.3 1431.23,1190.61 1446.98,1182.51C1448,1182 1457.72,1174.31 1464.73,1170.03C1467.91,1168.09 1471.85,1165.85 1474.77,1164.57C1475.97,1164.04 1477.07,1163.93 1477.97,1163.62C1480.05,1162.9 1481.23,1162.38 1481.23,1162.38C1481.23,1162.38 1480.59,1162.98 1480.53,1163.09C1480.31,1163.49 1452.86,1182.06 1452.24,1182.76C1451.66,1183.43 1445.88,1186.82 1444.95,1187.73C1443.63,1189.04 1441.97,1190.59 1440,1192.35C1431,1199.55 1417.95,1216.65 1410.75,1229.7C1399.5,1250.4 1397.7,1258.95 1397.25,1287.75C1397.25,1318.35 1399.05,1325.55 1413.9,1355.25C1440.95,1408.39 1457.09,1424.62 1524.68,1461.17C1532.65,1464.71 1558.28,1476.67 1558.28,1476.67L1551.49,1480.98C1551.49,1480.98 1528.89,1471.32 1508.64,1461.42C1488.39,1451.97 1472.06,1444.45 1470.7,1446.7C1470.24,1456.9 1486.64,1486.15 1506.68,1506.77C1512.38,1512.63 1527.27,1528.36 1527.27,1528.36L1529.35,1537.08C1529.35,1537.08 1513.84,1522.06 1501.2,1509.15Z" style="fill:rgb(167,29,33);fill-rule:nonzero;"/>
        </g>
        <g transform="matrix(0.189027,0,0,0.189027,374.902,454.857)">
            <path d="M1601.89,1492.31C1602.02,1490.46 1602.08,1488.03 1602.07,1484.91C1602.07,1485.01 1611.5,1484.77 1623.11,1483.97C1637.22,1483 1654.6,1481.34 1662.75,1480.35C1665.8,1479.98 1693.98,1476.49 1693.98,1476.49L1685.3,1485.6C1685.3,1485.6 1677.01,1486.66 1664.74,1487.88C1658.08,1488.53 1649,1489.24 1642.28,1489.83C1624.27,1491.44 1601.89,1492.31 1601.89,1492.31Z" style="fill:rgb(167,29,33);fill-rule:nonzero;"/>
        </g>
        <g transform="matrix(0.189027,0,0,0.189027,374.902,454.857)">
            <path d="M2046.15,3636.75C2038.5,3630.9 2031.75,3617.85 2026.8,3601.65C2022.75,3587.7 2010.15,3549 1999.35,3515.7C1971.9,3434.7 1972.8,3419.85 2007.9,3364.05C2021.85,3342 2037.15,3315.9 2042.1,3306C2056.95,3275.85 2073.6,3216.9 2079,3175.05C2087.55,3109.35 2089.8,3103.95 2111.4,3094.05C2126.7,3087.3 2141.1,3085.5 2181.15,3085.5C2208.6,3085.5 2232.9,3086.85 2234.25,3088.65C2235.6,3090 2230.65,3100.35 2223,3111.6C2209.05,3132.75 2178,3197.1 2178,3205.65C2178,3208.35 2193.75,3226.8 2213.1,3247.05C2232,3267.75 2256.3,3296.55 2267.1,3311.4C2284.2,3336.6 2285.55,3339.75 2278.8,3346.05C2272.5,3352.35 2269.35,3350.1 2244.6,3318.15C2229.75,3299.25 2204.1,3270 2187.9,3253.35L2158.65,3223.2L2136.15,3243.45C2124,3254.25 2107.8,3266.85 2100.6,3271.35C2091.15,3276.75 2080.8,3292.05 2065.5,3321.75L2043.9,3364.5L2055.15,3380.25C2086.65,3424.8 2123.55,3521.55 2127.6,3567.45C2128.5,3582.75 2128.05,3606.6 2126.7,3620.55L2123.55,3645.75L2090.7,3645.75C2064.15,3645.75 2055.15,3643.95 2046.15,3636.75Z" style="fill:rgb(147,144,143);fill-rule:nonzero;"/>
        </g>
        <g transform="matrix(0.189027,0,0,0.189027,374.902,454.857)">
            <path d="M3721.05,3569.7C3687.3,3556.65 3662.55,3536.85 3609,3479.7C3552.3,3418.95 3532.95,3407.25 3489.75,3407.25C3469.05,3407.25 3462.75,3409.05 3453.75,3418.05L3442.95,3428.85L3435.75,3406.8C3429,3387.45 3429,3379.35 3433.5,3346.5C3436.65,3325.8 3437.55,3306.9 3436.2,3304.2C3430.8,3296.1 3442.05,3277.2 3456.45,3269.55C3472.65,3261.45 3497.4,3263.25 3519.45,3274.95C3526.65,3278.55 3546.9,3294.75 3564,3310.95L3595.5,3340.65L3600.45,3328.05C3603.15,3320.85 3604.5,3301.95 3603.6,3286.2L3601.8,3257.85L3612.6,3270.45C3622.05,3281.25 3623.4,3286.2 3621.6,3307.8C3620.7,3321.75 3616.2,3340.2 3612.15,3349.2C3604.5,3364.5 3604.5,3365.85 3613.5,3387C3618.9,3399.15 3625.2,3425.25 3627.9,3445.5C3632.4,3479.7 3633.75,3482.85 3653.1,3502.65C3678.75,3529.2 3696.75,3536.4 3717.9,3527.4C3741.3,3517.05 3771,3493.65 3775.5,3481.05L3780,3469.35L3808.35,3492.75C3823.65,3505.35 3839.85,3518.85 3843.9,3522C3849.3,3526.5 3851.1,3533.25 3850.2,3544.5C3849.3,3553.5 3847.95,3561.15 3847.05,3562.5C3846.15,3563.4 3826.8,3566.55 3804.75,3569.25C3782.25,3571.95 3759.3,3574.65 3753,3575.55C3746.7,3576.9 3732.3,3573.75 3721.05,3569.7Z" style="fill:rgb(147,144,143);fill-rule:nonzero;"/>
        </g>
        <g transform="matrix(0.189027,0,0,0.189027,374.902,454.857)">
            <path d="M1786.5,3521.1C1786.5,3518.85 1804.05,3514.8 1826.1,3511.65C1847.7,3508.95 1870.2,3505.35 1876.5,3504C1882.8,3502.65 1878.75,3506.25 1867.5,3511.65C1846.35,3522 1786.5,3528.75 1786.5,3521.1Z" style="fill:rgb(147,144,143);fill-rule:nonzero;"/>
        </g>
        <g transform="matrix(0.189027,0,0,0.189027,374.902,454.857)">
            <path d="M4425.75,3509.85C4400.55,3493.2 4356,3450.9 4356,3443.7C4356,3435.6 4364.55,3438.3 4386.6,3453.15C4411.35,3469.8 4455,3512.55 4455,3519.3C4455,3526.95 4448.7,3525.15 4425.75,3509.85Z" style="fill:rgb(147,144,143);fill-rule:nonzero;"/>
        </g>
        <g transform="matrix(0.189027,0,0,0.189027,374.902,454.857)">
            <path d="M2644.65,822.45C2628.45,807.6 2609.1,775.2 2612.7,769.35C2614.5,766.65 2634.75,739.65 2657.25,709.05C2718,628.5 2753.1,574.5 2756.7,556.5C2760.3,537.6 2764.8,537.15 2793.15,552.45C2812.05,562.8 2818.35,563.7 2844,561.45C2913.3,554.7 2975.4,582.6 3018.6,638.85C3045.6,673.95 3116.25,691.05 3159,672.15C3196.8,655.95 3222.9,618.15 3222.9,579.45C3222.9,554.7 3210.75,514.2 3198.15,494.85C3183.75,474.15 3149.1,452.1 3123.9,448.05L3102.75,444.45L3118.5,440.85C3140.55,435.9 3166.2,440.85 3180.6,452.55C3187.35,458.4 3201.3,468.3 3212.1,475.05C3232.35,487.65 3244.5,508.35 3244.5,529.05C3244.5,534.9 3250.8,546.6 3258.9,554.7C3276.9,574.5 3294.9,613.65 3297.6,639.75C3299.4,659.1 3298.5,660.9 3276.45,683.4C3262.05,697.8 3240.45,713.1 3219.3,723.45L3185.55,740.55L3112.2,742.35C3052.35,744.15 3031.65,742.8 3003.3,736.5C2983.5,732 2952.45,728.85 2934,728.85C2915.55,729.3 2882.25,727.5 2860.65,725.25C2816.1,719.85 2794.5,723.9 2731.5,748.65C2696.4,762.15 2695.95,762.6 2692.8,781.05C2688.75,807.15 2674.35,833.25 2664.45,833.25C2659.95,833.25 2650.95,828.3 2644.65,822.45Z" style="fill:rgb(147,144,143);fill-rule:nonzero;"/>
        </g>
        <g transform="matrix(0.189027,0,0,0.189027,374.902,454.857)">
            <path d="M2545.2,627.6C2534.4,591.6 2507.85,379.65 2512.8,367.5C2516.85,357.15 2540.7,348.6 2576.25,345.9L2607.75,343.2L2587.5,350.85C2576.25,354.9 2564.55,360.3 2561.4,362.1C2554.65,366.6 2554.2,384.15 2561.4,391.35C2567.7,397.65 2591.55,398.55 2606.4,392.7C2612.25,390.9 2624.4,387.75 2633.85,385.95C2646.45,383.7 2650.5,384.15 2650.5,389.1C2650.5,392.7 2647.35,398.1 2643.75,401.25C2634.3,409.35 2635.2,434.1 2645.55,443.55C2653.65,450.75 2653.65,452.1 2646.9,465.15C2640.6,478.2 2640.6,480.45 2647.35,492.6C2652.75,502.05 2653.65,507.9 2650.5,513.75C2647.8,518.25 2646,526.35 2646,531.75C2646,546.15 2613.15,587.1 2584.35,609.15C2549.25,636.15 2547.9,636.6 2545.2,627.6Z" style="fill:rgb(147,144,143);fill-rule:nonzero;"/>
        </g>
        <g transform="matrix(0.189027,0,0,0.189027,374.902,454.857)">
            <path d="M2045.7,3636.3C2038.05,3630.45 2031.75,3618.3 2026.8,3601.65C2023.2,3587.7 2010.6,3549 1999.35,3515.7C1971.45,3433.35 1972.35,3422.1 2011.95,3357.75C2055.6,3287.1 2070,3246.6 2080.8,3164.25C2088.9,3105.75 2094.3,3097.2 2129.85,3087.3C2147.4,3082.8 2229.75,3084.15 2234.7,3089.1C2236.05,3090.45 2230.65,3100.35 2223,3111.6C2208.6,3133.2 2178,3197.1 2178,3206.1C2178,3208.8 2191.05,3224.55 2206.8,3240.75C2222.55,3256.95 2246.85,3285.3 2260.8,3303.75C2283.75,3334.35 2285.1,3337.5 2278.8,3344.7C2272.05,3352.35 2269.8,3350.55 2244.6,3318.15C2229.75,3299.25 2204.1,3270 2187.9,3253.35L2158.65,3223.2L2136.15,3243.45C2124,3254.25 2107.8,3266.85 2100.6,3271.35C2091.15,3276.75 2080.8,3292.05 2065.5,3321.75L2043.9,3364.5L2055.15,3380.25C2086.65,3424.8 2123.55,3521.55 2127.6,3567.45C2128.5,3582.75 2128.05,3606.6 2126.7,3620.55L2123.55,3645.75L2090.7,3645.75C2064.15,3645.75 2055.6,3643.95 2045.7,3636.3Z" style="fill:rgb(165,159,146);fill-rule:nonzero;"/>
        </g>
        <g transform="matrix(0.189027,0,0,0.189027,374.902,454.857)">
            <path d="M3720.6,3569.25C3688.2,3557.1 3658.95,3533.25 3608.1,3478.35C3554.55,3420.3 3532.95,3407.25 3490.65,3407.25C3469.05,3407.25 3462.75,3409.05 3453.75,3418.05L3442.95,3428.85L3435.75,3406.8C3429,3387.45 3429,3379.35 3433.5,3346.5C3436.65,3325.8 3437.55,3306.9 3436.2,3304.2C3430.8,3296.1 3442.05,3277.2 3456.45,3269.55C3472.65,3261.45 3497.4,3263.25 3519.45,3274.95C3526.65,3278.55 3546.9,3294.75 3564,3310.95L3595.5,3340.65L3600.45,3328.05C3603.15,3320.85 3604.5,3301.95 3603.6,3286.2L3601.8,3257.85L3612.6,3270.45C3622.05,3281.25 3623.4,3286.2 3621.6,3307.8C3620.7,3321.75 3616.2,3340.2 3612.15,3349.2C3604.5,3364.5 3604.5,3365.85 3613.5,3387C3618.9,3399.15 3625.2,3425.25 3627.9,3445.5C3632.4,3479.7 3633.75,3482.85 3653.1,3502.65C3676.95,3527.4 3696.3,3535.95 3714.3,3528.75C3734.55,3521.1 3766.5,3497.25 3774.6,3483.75L3782.25,3471.15L3816.9,3500.4C3849.3,3527.4 3851.55,3530.1 3850.2,3544.95C3849.3,3553.5 3847.95,3561.15 3847.05,3562.5C3846.15,3563.4 3826.8,3566.55 3804.75,3569.25C3782.25,3571.95 3759.3,3574.65 3753,3575.55C3746.7,3576.9 3732.3,3573.75 3720.6,3569.25Z" style="fill:rgb(165,159,146);fill-rule:nonzero;"/>
        </g>
        <g transform="matrix(0.189027,0,0,0.189027,374.902,454.857)">
            <path d="M2641.05,816.6C2619.9,794.1 2609.1,775.65 2612.7,769.35C2614.5,766.65 2634.75,739.65 2657.25,709.05C2718,628.5 2753.1,574.5 2756.7,556.5C2760.3,537.6 2764.8,537.15 2793.15,552.45C2812.05,562.8 2818.35,563.7 2844,561.45C2913.3,554.7 2975.4,582.6 3018.6,638.85C3045.6,673.95 3116.25,691.05 3159,672.15C3196.8,655.95 3222.9,618.15 3222.9,579.45C3222.9,554.7 3210.75,514.2 3198.15,494.85C3183.75,474.15 3149.1,452.1 3123.9,448.05L3102.75,444.45L3118.5,440.85C3140.55,435.9 3166.2,440.85 3180.6,452.55C3187.35,458.4 3201.3,468.3 3212.1,475.05C3232.35,487.65 3244.5,508.35 3244.5,529.05C3244.5,534.9 3250.8,546.6 3258.9,554.7C3276.9,574.5 3294.9,613.65 3297.6,639.75C3299.4,659.1 3298.5,660.9 3276.45,683.4C3262.05,697.8 3240.45,713.1 3219.3,723.45L3185.55,740.55L3112.2,742.35C3052.35,744.15 3031.65,742.8 3003.3,736.5C2983.5,732 2952.45,728.85 2934,728.85C2915.55,729.3 2882.25,727.5 2860.65,725.25C2816.1,719.85 2794.5,723.9 2731.95,748.65C2698.2,761.7 2695.95,763.05 2693.25,778.8C2688.3,806.25 2674.35,833.25 2665.35,833.25C2660.4,833.25 2649.6,825.6 2641.05,816.6Z" style="fill:rgb(165,159,146);fill-rule:nonzero;"/>
        </g>
        <g transform="matrix(0.189027,0,0,0.189027,374.902,454.857)">
            <path d="M2545.2,627.6C2534.85,594.75 2508.3,379.2 2512.8,367.5C2516.85,357.15 2540.7,348.6 2576.25,345.9L2607.75,343.2L2587.5,350.85C2576.25,354.9 2564.55,360.3 2561.4,362.1C2554.65,366.6 2554.2,384.15 2561.4,391.35C2567.7,397.65 2591.55,398.55 2606.4,392.7C2612.25,390.9 2624.4,387.75 2633.85,385.95C2646.45,383.7 2650.5,384.15 2650.5,389.1C2650.5,392.7 2647.35,398.1 2643.75,401.25C2634.3,409.35 2635.2,434.1 2645.55,443.55C2653.65,450.75 2653.65,452.1 2646.9,465.15C2640.6,478.2 2640.6,480.45 2647.35,492.6C2652.75,502.05 2653.65,507.9 2650.5,513.75C2647.8,518.25 2646,526.35 2646,531.75C2646,546.15 2613.15,587.1 2584.35,609.15C2549.25,636.15 2547.9,636.6 2545.2,627.6Z" style="fill:rgb(165,159,146);fill-rule:nonzero;"/>
        </g>
        <g transform="matrix(0.189027,0,0,0.189027,374.902,454.857)">
            <path d="M1741.81,1030.76C1741.81,1019.06 1754.55,955.65 1759.5,936.3C1763.55,910.657 1790.51,859.587 1795.4,863.064C1798.84,865.514 1798.58,921.234 1799.3,959.21C1799.38,963.42 1809.57,992.869 1810.39,994.406C1810.39,994.406 1816.76,1007.57 1822.43,1019.8C1825.77,1025 1825.84,1026.02 1829.63,1034.5L1800.9,1037.55C1787.15,1040.04 1767.34,1042.55 1758.01,1043.2C1748.93,1044.46 1740,1044 1740,1044C1740,1044 1741.81,1032.12 1741.81,1030.76Z" style="fill:rgb(213,207,226);fill-rule:nonzero;"/>
        </g>
        <g transform="matrix(0.189027,0,0,0.189027,374.902,454.857)">
            <path d="M2635.96,813.395C2626.96,803.495 2615.7,789.436 2612.1,782.236C2605.8,769.636 2602.43,775.777 2631.05,741.794C2669.75,692.294 2736.07,599.241 2745.97,579.441C2750.91,569.091 2757.24,556.64 2758.5,549.75C2760.96,536.349 2768.27,537.964 2792.57,551.914C2813.56,560.433 2816.1,564.15 2843.1,561.9C2878.2,558.75 2923.2,566.85 2952.45,581.25C2963.25,586.65 2988.45,607.8 3008.25,628.05C3036.6,656.85 3049.2,666.3 3069,673.5C3124.8,693.3 3180.15,676.65 3206.7,631.65C3226.95,597.9 3228.75,583.05 3217.05,539.85C3209.4,512.4 3203.1,498.9 3190.95,485.4C3172.95,465.6 3139.5,449.145 3118,445.625L3098.91,441.683L3126.01,439.03C3150.78,436.533 3168.17,442.621 3180.6,452.55C3187.35,458.4 3200.98,467.764 3211.78,474.514C3232.03,487.114 3244.93,507.599 3244.93,528.299C3244.93,534.149 3251.34,546.707 3259.44,554.807C3277.74,573.894 3295.57,612.346 3297.71,639.75C3300.24,660.28 3299.51,662.867 3276.77,684.258C3262.37,698.658 3244.71,713.755 3223.56,724.105C3212.46,731.239 3197.55,738.321 3180.59,741.086C3150.37,743.627 3134.31,742.662 3112.2,742.886C3052.35,744.686 3031.65,743.202 3003.3,736.902C2983.5,732.402 2952.99,729.118 2934.54,729.118C2916.09,729.568 2881.45,727.634 2859.85,725.384C2827.89,721.784 2815.89,722.938 2793.84,728.338C2777.36,732.629 2759.05,738.604 2742.2,744.953C2720.19,753.251 2701.48,761.35 2698.43,768C2695.16,775.151 2692.06,791.116 2687.95,804.289C2685.86,811.027 2684.47,817.819 2681.35,822.246C2676.35,829.342 2675.43,829.434 2675.43,829.434C2665.39,837.381 2647.48,834.649 2635.96,813.395Z" style="fill:rgb(213,207,226);fill-rule:nonzero;"/>
        </g>
        <g transform="matrix(0.189027,0,0,0.189027,374.902,454.857)">
            <path d="M2060.37,762.317C2057.26,760.865 2040.56,727.921 2018.75,703.609C2006.89,690.396 1987.05,684.094 1974.24,670.713C1963.15,659.128 1948.5,645.6 1948.5,645.6L1920.6,615L1965.15,612.3C2013.3,609.15 2033.55,601.95 2045.7,583.5C2056.05,567.3 2108.7,442.65 2117.25,413.4C2125.8,383.7 2120.71,370.057 2101.81,367.807C2092.5,366.8 2087.56,357.37 2087.56,357.37C2087.56,357.37 2093.91,355.587 2101.05,354C2112.76,350.846 2121.99,353.842 2143.8,367.95C2160,377.4 2207.7,394.95 2216.25,393.6L2232.45,392.778L2224.43,417.718C2215.43,442.918 2202.3,507.45 2182.5,642C2177.55,676.65 2172.15,712.65 2170.8,722.1L2167.3,743.623C2167.3,743.623 2145.75,726.128 2135.18,720.318C2125.01,714.729 2085.64,691.752 2083.76,683.383C2082.93,683.121 2083.98,671.292 2083.61,668.864C2083.43,667.725 2085.48,659.505 2087.74,650.932C2090.36,640.988 2090.92,633.426 2093.12,622.855C2095.82,609.805 2096.55,608.495 2079.45,599.945C2055.6,587.345 2027.06,606.93 2019.89,617.931C2017.26,621.955 2022.55,633.878 2026.3,642.799C2027.02,644.503 2028.07,646.993 2028.82,648.657C2029.46,650.092 2030.46,652.19 2031.2,653.808C2034.89,661.79 2037.16,667.127 2039.29,670.349C2041.25,673.326 2048.71,684.328 2053.62,695.583C2056.57,702.348 2055.7,716.158 2056.59,723.011C2058.65,738.815 2059.43,759.199 2059.5,759.662C2059.6,760.325 2060.13,761.799 2060.37,762.317ZM2142,611.85C2143.38,608.842 2144.73,605.654 2146.04,602.395C2146.89,600.279 2147.72,598.133 2148.51,595.988C2152.92,584.132 2156.38,572.282 2157.3,565.5L2160,547.5L2153.7,567.75C2151.28,576.38 2146.48,590.041 2141.74,601.826C2140.3,605.405 2138.86,608.811 2137.5,611.85L2127.15,635.7L2099.25,610.5L2112.3,625.35C2119.95,633 2126.25,639.75 2127.15,639.75C2128.05,639.75 2134.8,627.15 2142,611.85Z" style="fill:rgb(213,207,226);fill-rule:nonzero;"/>
        </g>
        <g transform="matrix(0.189027,0,0,0.189027,374.902,454.857)">
            <path d="M2022.36,658.202C2020.72,664.149 2023.22,675.355 2023.65,680.129C2025.45,689.005 2029.52,700.702 2030.84,700.125C2030.07,699.467 2018.05,699 2011.38,697.627C2019.03,702.929 2033.66,702.83 2033.24,701.98C2034.51,705.177 2027.17,684.476 2025.87,678.523C2025.18,673.163 2022.31,663.784 2022.36,658.202Z" style="fill:rgb(73,77,84);fill-rule:nonzero;"/>
        </g>
        <g transform="matrix(0.189027,0,0,0.189027,374.902,454.857)">
            <path d="M2541.49,613.65C2534.74,580.8 2525.85,509.7 2517.3,439.05C2511.9,392.25 2510.23,371.678 2513.83,364.928C2519.68,353.678 2539.53,348.775 2578.22,345.175L2610.67,340.114L2585.7,350.85C2560.05,359.85 2550.6,371.55 2556.45,386.85C2559.6,394.5 2563.65,396.75 2577.6,396.75C2587.5,396.75 2601,394.95 2608.2,392.7C2631.15,385.5 2650.5,383.25 2650.5,388.2C2650.5,390.45 2646,398.55 2640.6,405.75C2631.15,418.8 2631.15,419.7 2638.35,435C2642.4,443.55 2648.25,450.75 2650.5,450.75C2653.65,450.75 2652.75,454.8 2648.7,460.65C2639.7,473.7 2639.7,486.3 2648.7,496.2C2654.1,502.05 2654.55,506.1 2650.95,513.3C2648.25,518.25 2646,525.9 2646,529.95C2646,544.35 2612.7,586.65 2585.25,607.35C2570.4,618.6 2550.83,631.757 2547.68,634.007C2546.94,634.7 2545.51,635.878 2545.7,635.337C2545.63,633.58 2544.4,625.895 2541.49,613.65Z" style="fill:rgb(213,207,226);fill-rule:nonzero;"/>
        </g>
    </g>
</svg>
