<?xml version="1.0" encoding="UTF-8" standalone="no"?>
<!DOCTYPE svg PUBLIC "-//W3C//DTD SVG 1.1//EN" "http://www.w3.org/Graphics/SVG/1.1/DTD/svg11.dtd">
<svg width="100%" height="100%" viewBox="0 0 1920 1200" version="1.1" xmlns="http://www.w3.org/2000/svg" xmlns:xlink="http://www.w3.org/1999/xlink" xml:space="preserve" xmlns:serif="http://www.serif.com/" style="fill-rule:evenodd;clip-rule:evenodd;stroke-linejoin:round;stroke-miterlimit:2;">
    <g transform="matrix(1,0,0,1,-103.214,-3.49258)">
        <circle cx="1065.21" cy="563.641" r="406.094" style="fill:rgb(167,29,33);"/>
    </g>
    <g id="Text-bright-2-small" serif:id="Text bright 2 small" transform="matrix(1,0,0,1,149.37,6.69845)">
        <g transform="matrix(1,0,0,1,-987.534,535.02)">
            <text x="1662.88px" y="293.085px" style="font-family:'BrushScriptStd', 'Brush Script Std', cursive;font-weight:500;font-style:italic;font-size:400px;fill:rgb(214,208,228);">P</text>
        </g>
        <g transform="matrix(1,0,0,1,861.806,518.622)">
            <text x="0px" y="0px" style="font-family:'MyriadArabic-It', 'Myriad Arabic';font-style:italic;font-size:395px;fill:rgb(214,208,228);">a<tspan x="139.379px 196.089px 293.146px " y="0px 0px 0px ">lsa</tspan></text>
        </g>
        <g transform="matrix(1,0,0,1,771.07,844.946)">
            <text x="0px" y="0px" style="font-family:'MyriadArabic-It', 'Myriad Arabic';font-style:italic;font-size:200px;fill:rgb(214,208,228);">aderborn</text>
        </g>
        <g transform="matrix(1,0,0,1,990.822,732.946)">
            <text x="0px" y="0px" style="font-family:'MyriadArabic-It', 'Myriad Arabic';font-style:italic;font-size:200px;fill:rgb(214,208,228);">asión</text>
        </g>
        <g transform="matrix(1,0,0,1,-543.344,90.4331)">
            <text x="1139.38px" y="431.658px" style="font-family:'BrushScriptStd', 'Brush Script Std', cursive;font-weight:500;font-style:italic;font-size:400px;fill:rgb(214,208,228);">S</text>
        </g>
    </g>
</svg>
